HIERARCHY
ROOT Hips
{
	OFFSET 0.000000 71.427986 0.000000
	CHANNELS 6 Xposition Yposition Zposition Xrotation Yrotation Zrotation
	JOINT Pelvis
	{
		OFFSET 0.000000 0.000000 0.000000
		CHANNELS 3 Xrotation Yrotation Zrotation
		JOINT LeftUpLeg
		{
			OFFSET 6.797100 -2.508499 -1.318700
			CHANNELS 3 Xrotation Yrotation Zrotation
			JOINT LeftLeg
			{
				OFFSET 0.069008 -29.241863 0.690200
				CHANNELS 3 Xrotation Yrotation Zrotation
				JOINT LeftFoot
				{
					OFFSET -0.069008 -29.568123 -0.266800
					CHANNELS 3 Xrotation Yrotation Zrotation
					JOINT LeftToeBase
					{
						OFFSET 3.145500 -8.631000 16.059900
						CHANNELS 3 Xrotation Yrotation Zrotation
						End Site
						{
							OFFSET 0.000000 18.501587 0.000000
						}
					}
				}
			}
			JOINT Left_ShortSleeve
			{
				OFFSET 0.265923 -10.480953 1.153800
				CHANNELS 3 Xrotation Yrotation Zrotation
				End Site
				{
					OFFSET 1.725763 19.823879 0.000000
				}
			}
		}
		JOINT RightUpLeg
		{
			OFFSET -6.797100 -2.508499 -1.318700
			CHANNELS 3 Xrotation Yrotation Zrotation
			JOINT RightLeg
			{
				OFFSET -0.082453 -29.241932 0.688000
				CHANNELS 3 Xrotation Yrotation Zrotation
				JOINT RightFoot
				{
					OFFSET 0.082453 -29.568058 -0.264600
					CHANNELS 3 Xrotation Yrotation Zrotation
					JOINT RightToeBase
					{
						OFFSET -3.115300 -8.682800 16.113400
						CHANNELS 3 Xrotation Yrotation Zrotation
						End Site
						{
							OFFSET 0.000000 18.567114 0.000000
						}
					}
				}
			}
			JOINT Right_ShortSleeve
			{
				OFFSET -0.265923 -10.480953 1.153800
				CHANNELS 3 Xrotation Yrotation Zrotation
				End Site
				{
					OFFSET -1.725766 19.823910 0.000000
				}
			}
		}
	}
	JOINT Spine
	{
		OFFSET 0.000000 13.368103 0.470500
		CHANNELS 3 Xrotation Yrotation Zrotation
		JOINT Spine1
		{
			OFFSET 0.147000 13.837402 0.538800
			CHANNELS 3 Xrotation Yrotation Zrotation
			JOINT Spine2
			{
				OFFSET 0.168000 16.242897 -1.435500
				CHANNELS 3 Xrotation Yrotation Zrotation
				JOINT Neck
				{
					OFFSET 0.217200 18.631500 -1.679100
					CHANNELS 3 Xrotation Yrotation Zrotation
					JOINT Head
					{
						OFFSET 0.000000 6.599396 1.385900
						CHANNELS 3 Xrotation Yrotation Zrotation
						JOINT Hat
						{
							OFFSET -0.532200 27.220596 -10.096100
							CHANNELS 3 Xrotation Yrotation Zrotation
							End Site
							{
								OFFSET 0.000000 22.029861 0.000000
							}
						}
						JOINT HairD
						{
							OFFSET -10.777400 17.437393 -1.325900
							CHANNELS 3 Xrotation Yrotation Zrotation
							JOINT HairD1
							{
								OFFSET -3.290299 -11.051193 1.062200
								CHANNELS 3 Xrotation Yrotation Zrotation
								End Site
								{
									OFFSET 0.000000 11.579437 0.000000
								}
							}
						}
						JOINT HairB
						{
							OFFSET -10.777400 17.437393 1.467900
							CHANNELS 3 Xrotation Yrotation Zrotation
							JOINT HairB1
							{
								OFFSET -1.561200 -12.956299 3.590200
								CHANNELS 3 Xrotation Yrotation Zrotation
								End Site
								{
									OFFSET 0.000000 13.534866 0.000000
								}
							}
						}
						JOINT HairA
						{
							OFFSET 9.713100 17.437393 1.467900
							CHANNELS 3 Xrotation Yrotation Zrotation
							JOINT HairA1
							{
								OFFSET 1.561200 -12.956299 3.590200
								CHANNELS 3 Xrotation Yrotation Zrotation
								End Site
								{
									OFFSET 0.000000 13.534866 0.000000
								}
							}
						}
						JOINT HairC
						{
							OFFSET 9.713100 17.437393 -1.325900
							CHANNELS 3 Xrotation Yrotation Zrotation
							JOINT HairC1
							{
								OFFSET 3.290300 -11.051193 1.062200
								CHANNELS 3 Xrotation Yrotation Zrotation
								End Site
								{
									OFFSET 0.000000 11.579437 0.000000
								}
							}
						}
					}
				}
				JOINT LeftShoulder
				{
					OFFSET 5.101800 15.108002 -2.763700
					CHANNELS 3 Xrotation Yrotation Zrotation
					JOINT LeftArm
					{
						OFFSET 9.825497 2.506317 -1.597400
						CHANNELS 3 Xrotation Yrotation Zrotation
						JOINT LeftForeArm
						{
							OFFSET 21.966244 0.000000 0.000000
							CHANNELS 3 Xrotation Yrotation Zrotation
							JOINT LeftHand
							{
								OFFSET 33.879036 0.000000 0.000000
								CHANNELS 3 Xrotation Yrotation Zrotation
								JOINT LeftHandThumb1
								{
									OFFSET 6.715286 -2.359680 3.363841
									CHANNELS 3 Xrotation Yrotation Zrotation
									JOINT LeftHandThumb2
									{
										OFFSET 2.507072 -1.447464 1.447461
										CHANNELS 3 Xrotation Yrotation Zrotation
										JOINT LeftHandThumb3
										{
											OFFSET 2.898338 -1.673355 1.673357
											CHANNELS 3 Xrotation Yrotation Zrotation
											End Site
											{
												OFFSET -0.295959 3.727692 -0.131651
											}
										}
									}
								}
								JOINT LeftHandIndex1
								{
									OFFSET 14.190811 -0.254547 3.840278
									CHANNELS 3 Xrotation Yrotation Zrotation
									JOINT LeftHandIndex2
									{
										OFFSET 3.551727 0.000000 -0.000000
										CHANNELS 3 Xrotation Yrotation Zrotation
										JOINT LeftHandIndex3
										{
											OFFSET 2.894196 0.000000 0.000000
											CHANNELS 3 Xrotation Yrotation Zrotation
											End Site
											{
												OFFSET -1.000603 2.690872 0.366626
											}
										}
									}
								}
								JOINT LeftHandMiddle1
								{
									OFFSET 13.776489 0.000000 0.000000
									CHANNELS 3 Xrotation Yrotation Zrotation
									JOINT LeftHandMiddle2
									{
										OFFSET 3.438232 0.000000 0.000000
										CHANNELS 3 Xrotation Yrotation Zrotation
										JOINT LeftHandMiddle3
										{
											OFFSET 3.691551 0.000000 0.000000
											CHANNELS 3 Xrotation Yrotation Zrotation
											End Site
											{
												OFFSET -1.082298 3.499527 0.457670
											}
										}
									}
								}
								JOINT LeftHandRing1
								{
									OFFSET 13.966164 -0.268127 -3.067488
									CHANNELS 3 Xrotation Yrotation Zrotation
									JOINT LeftHandRing2
									{
										OFFSET 3.162567 0.000000 0.000000
										CHANNELS 3 Xrotation Yrotation Zrotation
										JOINT LeftHandRing3
										{
											OFFSET 3.324348 0.000000 0.000000
											CHANNELS 3 Xrotation Yrotation Zrotation
											End Site
											{
												OFFSET -0.861900 3.184998 0.405154
											}
										}
									}
								}
								JOINT LeftHandPinky1
								{
									OFFSET 13.131393 -0.168503 -5.746925
									CHANNELS 3 Xrotation Yrotation Zrotation
									JOINT LeftHandPinky2
									{
										OFFSET 2.849182 0.000000 0.000000
										CHANNELS 3 Xrotation Yrotation Zrotation
										JOINT LeftHandPinky3
										{
											OFFSET 2.805038 0.000000 0.000000
											CHANNELS 3 Xrotation Yrotation Zrotation
											End Site
											{
												OFFSET -0.882500 2.642609 0.325652
											}
										}
									}
								}
							}
							JOINT Left_Sleeve
							{
								OFFSET 6.592125 -0.646545 0.805568
								CHANNELS 3 Xrotation Yrotation Zrotation
								End Site
								{
									OFFSET -0.000179 20.275787 -0.000000
								}
							}
						}
					}
				}
				JOINT RightShoulder
				{
					OFFSET -5.731700 15.108002 -2.763700
					CHANNELS 3 Xrotation Yrotation Zrotation
					JOINT RightArm
					{
						OFFSET -9.825497 2.506317 -1.597400
						CHANNELS 3 Xrotation Yrotation Zrotation
						JOINT RightForeArm
						{
							OFFSET -21.966242 0.000000 0.000000
							CHANNELS 3 Xrotation Yrotation Zrotation
							JOINT RightHand
							{
								OFFSET -33.879032 0.000000 0.000000
								CHANNELS 3 Xrotation Yrotation Zrotation
								JOINT RightHandThumb1
								{
									OFFSET -6.715286 -2.359680 3.363841
									CHANNELS 3 Xrotation Yrotation Zrotation
									JOINT RightHandThumb2
									{
										OFFSET -2.507072 -1.447464 1.447461
										CHANNELS 3 Xrotation Yrotation Zrotation
										JOINT RightHandThumb3
										{
											OFFSET -2.898338 -1.673355 1.673357
											CHANNELS 3 Xrotation Yrotation Zrotation
											End Site
											{
												OFFSET 0.295959 3.727692 -0.131651
											}
										}
									}
								}
								JOINT RightHandIndex1
								{
									OFFSET -14.190811 -0.254547 3.840278
									CHANNELS 3 Xrotation Yrotation Zrotation
									JOINT RightHandIndex2
									{
										OFFSET -3.551727 0.000000 -0.000000
										CHANNELS 3 Xrotation Yrotation Zrotation
										JOINT RightHandIndex3
										{
											OFFSET -2.894196 0.000000 0.000000
											CHANNELS 3 Xrotation Yrotation Zrotation
											End Site
											{
												OFFSET 1.000603 2.690872 0.366626
											}
										}
									}
								}
								JOINT RightHandMiddle1
								{
									OFFSET -13.776489 0.000000 0.000000
									CHANNELS 3 Xrotation Yrotation Zrotation
									JOINT RightHandMiddle2
									{
										OFFSET -3.438232 0.000000 0.000000
										CHANNELS 3 Xrotation Yrotation Zrotation
										JOINT RightHandMiddle3
										{
											OFFSET -3.691551 0.000000 0.000000
											CHANNELS 3 Xrotation Yrotation Zrotation
											End Site
											{
												OFFSET 1.082298 3.499527 0.457670
											}
										}
									}
								}
								JOINT RightHandRing1
								{
									OFFSET -13.966164 -0.268127 -3.067488
									CHANNELS 3 Xrotation Yrotation Zrotation
									JOINT RightHandRing2
									{
										OFFSET -3.162567 0.000000 0.000000
										CHANNELS 3 Xrotation Yrotation Zrotation
										JOINT RightHandRing3
										{
											OFFSET -3.324348 0.000000 0.000000
											CHANNELS 3 Xrotation Yrotation Zrotation
											End Site
											{
												OFFSET 0.861900 3.184998 0.405154
											}
										}
									}
								}
								JOINT RightHandPinky1
								{
									OFFSET -13.131393 -0.168503 -5.746925
									CHANNELS 3 Xrotation Yrotation Zrotation
									JOINT RightHandPinky2
									{
										OFFSET -2.849182 0.000000 0.000000
										CHANNELS 3 Xrotation Yrotation Zrotation
										JOINT RightHandPinky3
										{
											OFFSET -2.805038 0.000000 0.000000
											CHANNELS 3 Xrotation Yrotation Zrotation
											End Site
											{
												OFFSET 0.882500 2.642609 0.325652
											}
										}
									}
								}
							}
							JOINT Right_Sleeve
							{
								OFFSET -6.592125 -0.646545 0.805568
								CHANNELS 3 Xrotation Yrotation Zrotation
								End Site
								{
									OFFSET 0.000179 20.275787 -0.000000
								}
							}
						}
					}
				}
				JOINT Bind_Right_JacketString
				{
					OFFSET -3.534800 11.969597 7.200700
					CHANNELS 3 Xrotation Yrotation Zrotation
					JOINT Bind_Right_JacketString1
					{
						OFFSET -0.319900 -6.102600 2.794100
						CHANNELS 3 Xrotation Yrotation Zrotation
						End Site
						{
							OFFSET 0.000000 6.719452 0.000000
						}
					}
				}
				JOINT Bind_Left_JacketString
				{
					OFFSET 2.904800 11.969597 7.200700
					CHANNELS 3 Xrotation Yrotation Zrotation
					JOINT Bind_Left_JacketString1
					{
						OFFSET 0.364800 -5.904503 3.186800
						CHANNELS 3 Xrotation Yrotation Zrotation
						End Site
						{
							OFFSET 0.000000 6.719513 0.000000
						}
					}
				}
				JOINT HairE
				{
					OFFSET 5.915200 17.612701 -11.592200
					CHANNELS 3 Xrotation Yrotation Zrotation
					JOINT HairE1
					{
						OFFSET 0.289200 -7.171898 -1.284500
						CHANNELS 3 Xrotation Yrotation Zrotation
						End Site
						{
							OFFSET 0.000000 7.291756 0.000000
						}
					}
				}
				JOINT HairF
				{
					OFFSET -0.864800 17.612701 -11.592200
					CHANNELS 3 Xrotation Yrotation Zrotation
					JOINT HairF1
					{
						OFFSET 0.000000 -14.087097 -2.127501
						CHANNELS 3 Xrotation Yrotation Zrotation
						End Site
						{
							OFFSET 0.000000 14.246841 0.000000
						}
					}
				}
				JOINT HairG
				{
					OFFSET -8.087700 17.612701 -11.592200
					CHANNELS 3 Xrotation Yrotation Zrotation
					JOINT HairG1
					{
						OFFSET -0.293600 -6.081398 -0.910100
						CHANNELS 3 Xrotation Yrotation Zrotation
						End Site
						{
							OFFSET 0.000000 6.156120 0.000000
						}
					}
				}
			}
		}
	}
	JOINT Pouch
	{
		OFFSET 0.000000 4.394501 10.847300
		CHANNELS 3 Xrotation Yrotation Zrotation
		End Site
		{
			OFFSET 0.000000 21.880577 0.000000
		}
	}
	JOINT Bag
	{
		OFFSET -13.229000 4.813004 -0.593300
		CHANNELS 3 Xrotation Yrotation Zrotation
		End Site
		{
			OFFSET 0.000000 21.880577 0.000000
		}
	}
	JOINT OccupyGuyFacialAnim_Joint
	{
		OFFSET 1.000000 -70.206398 -1.655000
		CHANNELS 3 Xrotation Yrotation Zrotation
		End Site
		{
			OFFSET 0.000000 21.880577 0.000000
		}
	}
}
MOTION
Frames: 4
Frame Time: 0.033333
-1.909868 65.617935 1.241462 -14.534175 -55.836301 -10.433949 0.000000 0.000001 0.000000 -18.909517 10.971739 20.308335 35.325749 -6.671214 -0.259211 -8.768616 1.715947 -13.533164 -0.000000 0.000000 0.000000 -0.000001 0.000003 0.000003 -7.843391 -13.872244 -21.794577 40.797669 10.149027 0.612199 -27.172262 -0.526053 10.601793 0.000000 0.000000 -0.000000 0.000000 -0.000001 -0.000000 9.001524 6.685331 0.221540 1.830647 1.413142 0.205436 1.825718 1.420226 0.202220 6.320267 4.273142 -3.966326 3.908933 18.399230 -3.407759 0.000001 -0.000000 -0.000000 0.000001 -0.000000 -0.000000 0.000001 -0.000000 -0.000001 0.000001 -0.000000 -0.000000 0.000000 -0.000000 -0.000001 0.000001 -0.000000 -0.000000 0.000000 -0.000000 -0.000001 0.000001 -0.000000 -0.000000 0.000001 -0.000000 -0.000000 3.569652 -15.247516 -10.411741 -23.063570 19.029431 -41.816402 0.000223 -99.816405 0.000228 20.592595 -10.198454 26.753317 4.891656 7.994781 1.884009 10.475110 36.544350 -16.206456 0.000005 0.000001 -0.000000 7.775691 6.956324 -86.152721 10.250081 6.003537 -119.372090 0.000001 0.000003 0.000000 6.544563 6.873020 -87.274306 9.404149 6.404058 -111.556045 -0.000001 -0.000002 0.000004 3.127845 6.869453 -89.819672 9.007633 6.545914 -108.040704 -0.000003 0.000001 -0.000001 1.160394 7.315432 -94.148427 8.017695 2.700472 -99.510734 0.000000 -0.000002 -0.000003 0.000003 -0.000001 0.000001 2.321943 7.802432 10.682457 -29.871436 31.244530 54.674349 0.000118 117.034171 -0.000101 -26.221373 16.142722 -0.338571 2.101954 -10.083024 3.633740 25.660773 -30.716713 6.844852 -0.000000 -0.000002 -0.000002 9.556184 -7.137729 86.157912 10.350178 -6.061965 119.375560 -0.000002 -0.000002 -0.000000 6.610170 -6.940069 87.289435 9.494165 -6.467112 111.542645 -0.000002 -0.000004 -0.000001 1.946404 -7.142774 92.181141 8.379090 -6.800029 101.912324 -0.000000 -0.000001 0.000001 -2.850671 -7.675002 94.127499 8.100969 -6.852406 99.572697 -0.000002 0.000001 0.000001 0.000001 0.000004 -0.000002 0.000000 -0.000001 0.000000 0.000000 0.000001 -0.000000 0.000000 -0.000001 0.000000 0.000000 -0.000001 0.000000 0.000000 -0.000001 0.000000 0.000000 0.000001 -0.000000 0.000000 -0.000001 0.000000 0.000000 -0.000001 0.000000 0.000000 -0.000001 0.000000 0.000000 0.000001 -0.000000 0.000000 0.000001 0.000000 0.000000 0.000001 0.000000 0.000000 0.000001 0.000000 
-2.007282 65.597458 1.184709 -14.330726 -55.598874 -10.232391 -0.000001 0.000002 -0.000000 -18.995977 10.885669 20.364720 35.258966 -6.880888 -0.272571 -8.717945 1.730198 -13.575926 -0.000000 0.000000 -0.000000 -0.000003 0.000000 -0.000003 -7.825395 -13.946465 -21.670945 40.969865 10.199235 0.594194 -27.362884 -0.871554 10.447267 0.000000 0.000000 0.000000 0.000001 -0.000001 -0.000000 8.963437 6.627797 0.146513 1.825054 1.401599 0.186834 1.820256 1.408489 0.183812 6.309595 4.266914 -3.997276 3.847191 18.349595 -3.436544 0.000001 0.000000 -0.000000 0.000001 0.000000 -0.000000 0.000001 0.000000 -0.000001 0.000001 0.000000 -0.000000 0.000001 0.000002 -0.000001 0.000001 0.000000 -0.000000 0.000001 0.000002 -0.000001 0.000001 0.000000 -0.000000 0.000001 0.000000 -0.000000 3.565900 -15.247134 -10.403277 -23.352118 18.832372 -41.679798 -0.000217 -99.743582 -0.000205 20.785855 -9.958237 27.326559 4.891658 7.994783 1.884010 10.475119 36.544347 -16.206463 -0.000001 0.000001 0.000001 7.775692 6.956324 -86.152714 10.250077 6.003537 -119.372090 0.000001 -0.000000 -0.000002 6.544566 6.873016 -87.274306 9.404151 6.404061 -111.556052 -0.000001 0.000001 0.000001 3.127847 6.869445 -89.819665 9.007629 6.545914 -108.040704 -0.000002 0.000000 -0.000001 1.160394 7.315434 -94.148427 8.017694 2.700473 -99.510727 -0.000001 0.000002 -0.000000 0.000000 0.000000 0.000001 2.329691 7.834790 10.686943 -29.787698 31.273978 54.836276 0.000042 116.905613 -0.000058 -26.377590 16.261335 -0.022518 2.101953 -10.083022 3.633736 25.660778 -30.716716 6.844856 0.000001 -0.000002 0.000001 9.556179 -7.137725 86.157912 10.350180 -6.061964 119.375560 0.000002 0.000001 0.000004 6.610168 -6.940068 87.289435 9.494164 -6.467106 111.542638 0.000001 -0.000001 0.000001 1.946402 -7.142771 92.181141 8.379087 -6.800028 101.912324 0.000001 0.000004 -0.000000 -2.850675 -7.675002 94.127499 8.100965 -6.852406 99.572704 0.000000 0.000002 -0.000001 0.000006 0.000004 -0.000003 -0.000000 -0.000001 -0.000000 0.000000 -0.000001 -0.000000 -0.000000 -0.000001 0.000000 -0.000000 -0.000001 0.000000 -0.000000 -0.000001 -0.000000 0.000000 -0.000001 0.000000 -0.000000 -0.000001 0.000000 -0.000000 -0.000001 0.000000 -0.000000 -0.000001 -0.000000 0.000000 -0.000001 0.000000 -0.000001 0.000002 -0.000000 -0.000001 0.000002 -0.000000 -0.000001 0.000002 -0.000000 
-2.053188 65.570679 1.088047 -14.078995 -55.324259 -9.940297 0.000000 0.000001 0.000000 -19.114698 10.704514 20.324208 35.140681 -7.044010 -0.282008 -8.580155 1.737363 -13.635107 -0.000000 0.000000 0.000000 0.000001 -0.000002 0.000000 -8.003185 -14.132931 -21.671348 41.257703 10.187512 0.585543 -27.535505 -1.061959 10.309358 0.000000 0.000000 -0.000000 -0.000001 -0.000001 -0.000000 8.985367 6.556823 0.017938 1.832661 1.387946 0.156812 1.828023 1.394613 0.154050 6.286273 4.242876 -3.975711 3.675111 18.248828 -3.375153 0.000001 -0.000001 0.000000 0.000001 -0.000001 0.000000 0.000001 -0.000001 -0.000000 0.000001 -0.000001 0.000000 0.000001 0.000002 -0.000000 0.000001 -0.000001 0.000000 0.000001 0.000002 -0.000000 0.000001 -0.000001 0.000000 0.000001 -0.000001 0.000000 3.545998 -15.198668 -10.382767 -23.746596 18.395417 -41.524306 -0.000124 -99.677889 -0.000107 21.079367 -9.571775 28.037836 4.891656 7.994780 1.884014 10.475123 36.544340 -16.206451 -0.000000 -0.000000 -0.000001 7.775691 6.956325 -86.152714 10.250085 6.003539 -119.372090 0.000005 0.000002 -0.000002 6.544560 6.873020 -87.274306 9.404148 6.404059 -111.556052 0.000002 -0.000003 0.000004 3.127844 6.869450 -89.819665 9.007627 6.545916 -108.040704 0.000000 0.000001 0.000005 1.160392 7.315432 -94.148427 8.017694 2.700471 -99.510734 -0.000002 -0.000000 0.000001 0.000002 0.000001 0.000001 2.343038 7.873945 10.706468 -29.854835 31.201342 55.180525 0.000014 116.749871 -0.000022 -26.583480 16.432645 0.354639 2.101954 -10.083027 3.633740 25.660778 -30.716713 6.844860 -0.000002 -0.000002 0.000000 9.556183 -7.137725 86.157912 10.350180 -6.061966 119.375560 -0.000000 -0.000000 0.000002 6.610170 -6.940070 87.289435 9.494162 -6.467111 111.542645 0.000001 -0.000001 -0.000001 1.946404 -7.142774 92.181141 8.379088 -6.800029 101.912317 -0.000000 -0.000000 -0.000004 -2.850672 -7.675002 94.127499 8.100966 -6.852407 99.572704 -0.000001 -0.000001 0.000000 0.000004 0.000003 -0.000002 0.000000 -0.000001 -0.000000 0.000000 0.000001 0.000000 0.000000 -0.000001 0.000000 0.000000 -0.000001 0.000000 0.000000 -0.000001 -0.000000 0.000000 0.000001 0.000000 0.000000 -0.000001 0.000000 0.000000 -0.000001 0.000000 0.000000 -0.000001 -0.000000 0.000000 0.000001 0.000000 0.000000 0.000001 0.000000 0.000000 0.000001 0.000000 0.000000 0.000001 0.000000 
-2.053290 65.535255 0.947221 -13.687884 -54.968410 -9.458031 0.000000 -0.000002 0.000000 -19.297812 10.373812 20.138403 34.954477 -7.116468 -0.284171 -8.334391 1.734639 -13.725393 -0.000000 0.000000 -0.000000 -0.000003 -0.000001 0.000000 -8.350550 -14.284812 -21.729367 41.674389 10.161692 0.571141 -27.731307 -1.311876 10.146359 0.000000 0.000002 -0.000000 -0.000000 -0.000003 -0.000000 9.009699 6.508347 -0.223232 1.840582 1.380458 0.103335 1.836083 1.386846 0.100876 6.264667 4.199539 -3.921682 3.393523 18.049077 -3.153056 -0.000000 -0.000001 0.000000 -0.000000 -0.000001 0.000000 -0.000000 -0.000001 -0.000000 -0.000000 -0.000001 0.000000 -0.000000 -0.000001 0.000000 -0.000000 -0.000001 0.000000 -0.000000 -0.000001 0.000000 -0.000000 -0.000001 0.000000 -0.000000 -0.000001 0.000000 3.496703 -15.057591 -10.342447 -24.235856 17.763755 -41.375544 -0.000395 -99.669071 -0.000411 21.446381 -9.251457 28.379559 4.891659 7.994782 1.884006 10.475120 36.544340 -16.206447 -0.000001 -0.000000 0.000001 7.775688 6.956325 -86.152721 10.250079 6.003542 -119.372090 0.000007 0.000000 0.000002 6.544558 6.873019 -87.274306 9.404148 6.404062 -111.556045 0.000003 0.000000 0.000001 3.127843 6.869453 -89.819672 9.007635 6.545912 -108.040697 -0.000000 -0.000002 -0.000002 1.160390 7.315436 -94.148427 8.017694 2.700475 -99.510727 -0.000003 0.000002 0.000001 -0.000000 0.000002 0.000001 2.351483 7.893888 10.722266 -30.010366 31.006668 55.545769 0.000012 116.577382 -0.000031 -26.494338 16.682133 0.966288 2.101954 -10.083027 3.633740 25.660775 -30.716723 6.844861 0.000001 -0.000001 0.000000 9.556182 -7.137727 86.157912 10.350182 -6.061964 119.375560 0.000001 -0.000000 -0.000007 6.610168 -6.940070 87.289435 9.494164 -6.467110 111.542645 0.000001 -0.000000 -0.000001 1.946403 -7.142776 92.181141 8.379088 -6.800029 101.912324 0.000001 -0.000001 -0.000002 -2.850674 -7.675003 94.127499 8.100968 -6.852406 99.572697 -0.000003 -0.000001 -0.000001 0.000002 0.000003 -0.000004 -0.000000 0.000001 0.000000 -0.000000 0.000002 -0.000000 -0.000000 0.000001 0.000000 -0.000000 0.000001 0.000000 -0.000000 0.000001 0.000000 -0.000000 0.000002 -0.000000 -0.000000 0.000001 0.000000 -0.000000 0.000001 0.000000 -0.000000 0.000001 0.000000 -0.000000 0.000002 -0.000000 0.000000 -0.000002 0.000000 0.000000 -0.000002 0.000000 0.000000 -0.000002 0.000000 
